# xmcd
#
# Track frame offsets:
#	150
#	23629
#	47233
#	76641
#	109950
#	128789
#	168832
#	197970
#	222506
#	244831
#	283907
#	310558
#
# Disc length: 4690 seconds
#
# Revision: 0
# Processed by: cddbd v1.5PL3 Copyright (c) Steve Scherf et al.
# Submitted via: audiograbber 1.82.01
#
DISCID=a512500c
DTITLE=Peter Gabriel - 1983-07-03 - Werchter, Holland - "Holding My Breath"
DYEAR=1900
DGENRE=
TTITLE0=Peter Gabriel - Across The River
TTITLE1=Peter Gabriel - Intruder
TTITLE2=Peter Gabriel - Not One Of Us
TTITLE3=Peter Gabriel - The Family And The Fishing Net
TTITLE4=Peter Gabriel - Humdrum
TTITLE5=Peter Gabriel - Shock The Monkey
TTITLE6=Peter Gabriel - Milgram's 37
TTITLE7=Peter Gabriel - Family Snapshot
TTITLE8=Peter Gabriel - Solsbury Hill
TTITLE9=Peter Gabriel - San Jacinto
TTITLE10=Peter Gabriel - On The Air
TTITLE11=Peter Gabriel - Biko
EXTD=
EXTT0=
EXTT1=
EXTT2=
EXTT3=
EXTT4=
EXTT5=
EXTT6=
EXTT7=
EXTT8=
EXTT9=
EXTT10=
EXTT11=
PLAYORDER=
